<?xml version="1.0" standalone="no"?>
<!DOCTYPE svg PUBLIC "-//W3C//DTD SVG 20010904//EN"
 "http://www.w3.org/TR/2001/REC-SVG-20010904/DTD/svg10.dtd">
<svg version="1.0" xmlns="http://www.w3.org/2000/svg"
 width="100.000000pt" height="100.000000pt" viewBox="0 0 100.000000 100.000000"
 preserveAspectRatio="xMidYMid meet">
<metadata>
Created by potrace 1.14, written by Peter Selinger 2001-2017
</metadata>
<g transform="translate(0.000000,100.000000) scale(0.100000,-0.100000)"
fill="#000000" stroke="none">
<path d="M313 783 c-6 -15 6 -35 17 -28 4 3 13 -2 20 -10 11 -13 6 -15 -33
-15 -37 0 -47 -4 -52 -20 -6 -20 -45 -29 -45 -10 0 6 -5 10 -11 10 -8 0 -9
-11 -5 -32 8 -40 8 -40 53 -47 40 -7 46 -17 92 -161 l20 -65 -24 -20 c-14 -11
-37 -29 -51 -41 -20 -15 -25 -25 -20 -42 10 -29 38 -29 34 0 -3 20 4 24 52 35
61 13 65 11 76 -46 4 -21 2 -42 -5 -53 -11 -17 -10 -19 11 -16 22 3 23 7 24
88 2 80 3 85 25 91 51 15 67 10 78 -22 17 -48 14 -128 -4 -135 -21 -8 -19 -24
4 -24 27 0 39 19 52 81 7 30 15 57 18 61 3 4 24 -8 46 -26 35 -30 39 -38 40
-80 0 -41 2 -46 20 -44 18 3 20 9 16 58 -1 30 -9 73 -17 95 -7 22 -14 65 -14
95 0 77 -11 88 -34 34 -10 -24 -22 -44 -26 -44 -5 0 -19 15 -31 33 -31 43 -41
49 -59 33 -8 -8 -41 -19 -72 -26 -32 -6 -60 -16 -63 -21 -4 -5 -14 -9 -24 -9
-38 0 -38 134 -1 148 16 6 14 13 -16 76 -18 38 -35 80 -38 92 -7 25 -44 30
-53 7z m60 -95 c8 -12 7 -21 -2 -32 -19 -22 -51 -20 -78 6 l-23 22 32 12 c42
15 58 13 71 -8z"/>
<path d="M672 723 c-18 -7 -33 -49 -25 -70 6 -14 7 -13 14 5 11 28 39 42 67
31 31 -12 29 -53 -4 -84 -15 -14 -24 -31 -21 -39 5 -12 15 -7 47 21 31 28 40
43 40 69 0 53 -64 89 -118 67z"/>
</g>
</svg>
